<svg preserveAspectRatio="none" width="100%" height="100%" overflow="visible" style="display: block;" viewBox="0 0 23.9991 23.9997" fill="none" xmlns="http://www.w3.org/2000/svg">
<g id="Group 467">
<path id="Subtract" d="M18.7064 20.0712L21.0455 21.2143C21.6266 21.4983 22.3297 21.2457 22.5588 20.6409C23.2286 18.8731 23.7551 16.7609 23.9336 14.5864C24.1372 12.1043 23.8855 9.56647 22.9 7.37044L22.8986 7.37104C22.8548 7.27642 22.8103 7.18206 22.7651 7.08801C22.426 6.43754 21.7909 5.63976 20.8556 5.11189C19.8013 4.51691 18.3368 4.24763 16.4149 4.96752C16.0072 5.12024 15.5921 5.3176 15.1759 5.55302C15.6987 6.44253 16.0733 7.64218 16.103 9.22404C16.1299 10.6537 15.898 12.0076 15.5426 13.2138L19.0508 14.5164C19.7634 14.7809 20.2299 15.4853 20.0969 16.2338C19.9096 17.2867 19.5798 18.3115 19.1186 19.283C18.9939 19.5457 18.8568 19.8094 18.7064 20.0712Z" fill="var(--fill-0, #161615)"/>
<path id="Subtract_2" d="M7.28937 19.1226C7.57698 19.036 7.88074 18.9107 8.19952 18.7366C9.54955 17.999 10.5705 16.7945 11.2964 15.613C11.7807 14.8246 12.1414 14.0336 12.3852 13.3728C12.482 13.1104 12.7716 12.9681 13.0338 13.0654L18.6403 15.147C19.1317 15.3295 19.4413 15.8235 19.3353 16.3368C19.1755 17.1113 18.8959 18.0369 18.4539 18.9681C17.7606 20.4287 16.6802 21.8778 15.0635 22.7937C13.7277 23.5505 12.3615 23.9409 11.0844 23.9996C9.69293 23.7641 8.78007 23.1602 8.1985 22.3536C7.58277 21.4996 7.30898 20.3773 7.28937 19.1226Z" fill="var(--fill-0, #161615)"/>
<path id="Subtract_3" d="M10.6678 0.107452C14.1058 -0.294875 16.6604 0.465762 18.5995 1.83492C19.6298 2.56241 20.495 3.46793 21.2288 4.47763L21.2209 4.47316C19.9693 3.76681 18.2761 3.48687 16.1577 4.28037C13.3138 5.34563 10.2481 8.34743 8.61586 11.4086C7.55718 13.3942 6.51316 16.4389 6.55263 19.1261C6.57242 20.473 6.86506 21.7641 7.60042 22.784C7.85642 23.139 8.16256 23.4563 8.52246 23.7292C5.90361 23.0778 2.6084 21.2638 0.832552 17.0826C-0.71719 13.4338 0.0196718 9.39471 2.02756 6.14835C4.03851 2.89704 7.28598 0.503196 10.6678 0.107452Z" fill="var(--fill-0, #161615)"/>
</g>
</svg>
