<svg preserveAspectRatio="none" width="100%" height="100%" overflow="visible" style="display: block;" viewBox="0 0 26.894 26.9717" fill="none" xmlns="http://www.w3.org/2000/svg">
<g id="Group">
<path id="Vector" d="M22.6673 3.6548C30.5538 11.1073 26.8261 24.4206 16.2702 26.6687C6.4223 28.7658 -2.17393 19.6335 0.491323 9.88898C3.14971 0.17047 15.3031 -3.30458 22.6673 3.6548ZM10.462 3.97218H6.44947V18.511C6.75105 18.3706 7.0174 18.1493 7.30554 17.9784C7.88003 17.6373 8.48588 17.3409 9.11114 17.1044C9.13234 17.096 9.16429 17.0439 9.16429 17.0301V7.87599L12.235 16.2839C12.3168 16.3765 12.7671 16.2711 12.9069 16.2657C13.3156 16.2501 13.7826 16.2519 14.192 16.2657C14.3177 16.2699 14.5267 16.3298 14.6405 16.3244C14.7358 16.3199 14.8068 16.0797 14.8412 15.9917C15.8818 13.3227 16.6924 10.5414 17.7121 7.86192C17.7253 7.82719 17.7441 7.74155 17.7856 7.74125V16.9999C18.4709 17.2957 19.1505 17.5975 19.7942 17.9772C20.023 18.1119 20.2484 18.3239 20.5004 18.3907V4.01709L20.4556 3.97218H16.458L13.5199 12.6775L10.4617 3.97218H10.462ZM11.8791 18.4811C11.473 18.3652 11.0822 18.2613 10.654 18.2586C10.5719 18.2011 10.6883 17.8442 10.5814 17.7631H9.88032V18.2715C9.23416 18.3194 8.55068 18.6607 8.3972 19.3422C8.15414 20.4213 8.80359 21.0369 9.82985 21.119L9.88032 21.1582V22.1903C9.38525 22.2178 8.91198 22.0729 8.44826 21.9211V22.9083C8.91407 23.0948 9.38465 23.1379 9.88032 23.1774V23.6113C9.89913 23.6409 9.92152 23.6499 9.95496 23.6562C10.0505 23.6739 10.4187 23.67 10.5232 23.6577C10.5665 23.6526 10.5999 23.6541 10.6262 23.6113V23.1475C10.9493 23.0924 11.2822 23.0244 11.5611 22.8436C12.3924 22.304 12.3595 20.9902 11.4629 20.5288C11.1944 20.3908 10.8949 20.3671 10.6262 20.2608V19.2287C11.0583 19.2057 11.4664 19.3727 11.8791 19.468V18.4808V18.4811ZM17.0699 17.7631H16.3538V18.2715C15.4589 18.3236 14.708 18.9374 14.8062 19.8982C14.8928 20.7447 15.6041 21.0519 16.3538 21.1435V22.1906C15.8624 22.2172 15.395 22.0828 14.9385 21.9223C14.8546 21.9744 14.9209 22.0597 14.9233 22.1445C14.9301 22.3975 14.9116 22.652 14.926 22.9044C15.3813 23.1128 15.8638 23.128 16.3538 23.1777V23.6116L16.3986 23.6565H17.0699V23.1927C17.1478 23.096 17.2648 23.1304 17.3697 23.1047C18.2681 22.884 18.7707 22.2894 18.5781 21.3214C18.4518 20.6857 17.7038 20.3497 17.12 20.3003L17.0696 20.2611V19.229C17.5148 19.1892 17.9247 19.3862 18.3523 19.4683V18.4811C18.1242 18.4308 17.9044 18.3481 17.6727 18.3098C17.5655 18.2921 17.0693 18.2883 17.0693 18.1969V17.7631H17.0699Z" fill="var(--fill-0, #345941)"/>
<path id="Vector_2" d="M10.462 3.97219L13.5202 12.6775L16.4583 3.97219H20.4559L20.5007 4.0171V18.3913C20.2487 18.3242 20.023 18.1125 19.7945 17.9778C19.1508 17.5981 18.4712 17.2963 17.7859 17.0005V7.74186C17.7444 7.74216 17.7256 7.82779 17.7124 7.86253C16.693 10.542 15.8821 13.3236 14.8415 15.9923C14.8071 16.0804 14.7363 16.3205 14.6408 16.325C14.527 16.3304 14.318 16.2705 14.1923 16.2663C13.7829 16.2525 13.3159 16.2507 12.9072 16.2663C12.7671 16.2717 12.3168 16.3771 12.2353 16.2846L9.16458 7.8766V17.0307C9.16458 17.0445 9.13233 17.0966 9.11143 17.105C8.48617 17.3415 7.88033 17.6379 7.30583 17.979C7.01769 18.1499 6.75134 18.3712 6.44976 18.5116V3.97219H10.4623H10.462Z" fill="var(--fill-0, #C7CCC8)"/>
<path id="Vector_3" d="M11.8791 18.4811V19.4683C11.4661 19.3727 11.0582 19.206 10.6262 19.229V20.2611C10.8949 20.3671 11.1944 20.3911 11.4628 20.5291C12.3595 20.9905 12.3926 22.3043 11.5611 22.8439C11.2822 23.0247 10.9492 23.0927 10.6262 23.1478V23.6116C10.5999 23.6544 10.5667 23.6529 10.5231 23.658C10.4186 23.6703 10.0505 23.6739 9.95492 23.6565C9.92148 23.6505 9.89908 23.6412 9.88027 23.6116V23.1778C9.3846 23.1382 8.91432 23.0948 8.44821 22.9086V21.9214C8.91163 22.0732 9.3849 22.2181 9.88027 22.1906V21.1585L9.82981 21.1193C8.80354 21.0372 8.1541 20.4213 8.39715 19.3425C8.55063 18.661 9.23381 18.3197 9.88027 18.2718V17.7634H10.5814C10.6883 17.8445 10.5721 18.2014 10.6539 18.2589C11.0821 18.2616 11.473 18.3655 11.8791 18.4814V18.4811ZM9.88027 20.1563V19.2739C9.83668 19.2081 9.67693 19.276 9.61213 19.3042C9.40401 19.3946 9.32011 19.5237 9.34161 19.7548C9.36549 20.0102 9.66409 20.1081 9.88027 20.1566V20.1563ZM10.6262 21.2633V22.1606C11.3165 22.1028 11.3078 21.354 10.6262 21.2633Z" fill="var(--fill-0, #C7CCC8)"/>
<path id="Vector_4" d="M17.0699 17.7631V18.1969C17.0699 18.2882 17.5658 18.2921 17.6733 18.3098C17.9051 18.3481 18.1248 18.4305 18.3529 18.4811V19.4683C17.9254 19.3862 17.5154 19.1892 17.0702 19.229V20.2611L17.1206 20.3003C17.7044 20.3494 18.4524 20.6857 18.5787 21.3214C18.7713 22.2894 18.2687 22.884 17.3703 23.1047C17.2655 23.1304 17.1481 23.096 17.0705 23.1927V23.6565H16.3992L16.3545 23.6116V23.1777C15.8645 23.128 15.3819 23.1128 14.9266 22.9044C14.9122 22.652 14.9308 22.3972 14.9239 22.1445C14.9215 22.0597 14.8552 21.9744 14.9391 21.9223C15.3957 22.0828 15.863 22.2172 16.3545 22.1906V21.1435C15.6044 21.0519 14.8934 20.7447 14.8068 19.8982C14.7086 18.9377 15.4599 18.3239 16.3545 18.2715V17.7631H17.0705H17.0699ZM16.3542 19.259C15.6142 19.2458 15.631 20.103 16.3542 20.1563V19.259ZM17.0699 21.3082V22.116C17.0699 22.2265 17.378 22.0876 17.4264 22.0549C17.6387 21.9118 17.6841 21.6049 17.4858 21.4297C17.4297 21.3803 17.098 21.2079 17.0699 21.3085V21.3082Z" fill="var(--fill-0, #C7CCC8)"/>
<path id="Vector_5" d="M9.88031 20.1563C9.66383 20.1078 9.36524 20.0099 9.34165 19.7545C9.32015 19.5234 9.40406 19.3943 9.61218 19.3039C9.67697 19.2757 9.83702 19.2078 9.88031 19.2736V20.156V20.1563Z" fill="var(--fill-0, #345941)"/>
<path id="Vector_6" d="M10.6262 21.2633C11.3079 21.3543 11.3165 22.1031 10.6262 22.1606V21.2633Z" fill="var(--fill-0, #345941)"/>
<path id="Vector_7" d="M16.3541 19.259V20.1563C15.6309 20.1027 15.6142 19.2458 16.3541 19.259Z" fill="var(--fill-0, #345941)"/>
<path id="Vector_8" d="M17.0698 21.3082C17.0979 21.2079 17.4296 21.3801 17.4858 21.4295C17.6843 21.6046 17.6386 21.9115 17.4263 22.0546C17.378 22.0873 17.0698 22.2262 17.0698 22.1157V21.3079V21.3082Z" fill="var(--fill-0, #345941)"/>
</g>
</svg>
