<svg preserveAspectRatio="none" width="100%" height="100%" overflow="visible" style="display: block;" viewBox="0 0 31.9043 32" fill="none" xmlns="http://www.w3.org/2000/svg">
<path id="Vector" d="M26.5966 27.9258C22.6898 31.4227 17.3913 32.7692 12.2563 31.5722C4.85718 29.8475 -0.426443 22.8399 0.027121 15.2087C0.0342873 15.0886 0.00293491 14.8961 0.0265238 14.7943C0.0321971 14.77 0.0829581 14.785 0.0883328 14.7302C0.111325 14.5014 0.0886314 14.2451 0.119387 13.9852C0.72822 8.82836 3.98289 4.20565 8.53198 1.80911C10.3041 0.875523 12.6553 0.145542 14.6588 0.031464C18.5471 -0.189806 22.2222 0.749169 25.3813 3.06427C33.5574 9.05652 34.1433 21.1704 26.5966 27.9255V27.9258ZM25.1028 6.11085C17.4325 -0.975479 5.01752 2.95558 2.80912 13.122C0.569667 23.4313 10.5687 32.2602 20.4901 28.6977C29.9242 25.3104 32.5156 12.9588 25.1031 6.11055L25.1028 6.11085Z" fill="var(--fill-0, #C7CCC8)"/>
</svg>
