<svg preserveAspectRatio="none" width="100%" height="100%" overflow="visible" style="display: block;" viewBox="0 0 19.6923 19.6923" fill="none" xmlns="http://www.w3.org/2000/svg">
<g id="interface-edit-pencil--change-edit-modify-pencil-write-writing--Streamline-Core">
<path id="Vector" d="M7.38465 16.2953L1.84619 17.8461L3.39696 12.3076L13.5385 2.2153C13.6531 2.09807 13.79 2.00493 13.9411 1.94134C14.0922 1.87775 14.2545 1.84499 14.4185 1.84499C14.5825 1.84499 14.7448 1.87775 14.8959 1.94134C15.047 2.00493 15.1839 2.09807 15.2985 2.2153L17.477 4.40607C17.5923 4.52048 17.6839 4.65661 17.7464 4.80659C17.8088 4.95657 17.841 5.11744 17.841 5.27991C17.841 5.44239 17.8088 5.60326 17.7464 5.75324C17.6839 5.90322 17.5923 6.03934 17.477 6.15376L7.38465 16.2953Z" stroke="var(--stroke-0, #141413)" stroke-width="2" stroke-linecap="round" stroke-linejoin="round"/>
</g>
</svg>
